<svg version="1.2" xmlns="http://www.w3.org/2000/svg" viewBox="0 0 1024 1024" width="1024" height="1024"><style>.a{fill:#0496ee}.b{fill:#f00}.c{fill:none;stroke:#0496ee;stroke-miterlimit:100;stroke-width:10}.d{fill:none;stroke:#0496ee;stroke-miterlimit:100;stroke-width:8}.e{fill:none;stroke:#0496ee;stroke-miterlimit:100;stroke-width:9}.f{fill:#13a4fb}</style><path class="a" d="m829 398.1l1.1 9.9h-69.1l-12-10-269 1-26-24h-47l-41 41h-10l47-52h55l25 24h270l15 10z"/><path class="a" d="m661 560v10h-165l-141 140 15-26 120-124z"/><path class="a" d="m441 283l-10-3 6-45 39 39 10 20-14-10-27-27z"/><path fill-rule="evenodd" class="a" d="m381.6 323.4l-37.1 43.9-47.7 3.8 27.3-33.1zm-49.6 22.6l-13 14.4 20-2.4 13-15z"/><path fill-rule="evenodd" class="b" d="m351 343l-12 15"/><path class="a" d="m776 528h-13l-28-27h-71-1l-36 37h-82l-41-40h-55l-16 18v66l-78 93 30-152-16-28-120 19c0 0-9.1-8-27-23.2-19.6-14.4-42.3-38.1-54-61.8 20.9-20.1 84.1-59.5 101-71 9.2-21.4 18-44 18-44l102-59 23-108 111 111c0 0 44 2.7 67 23 23 20.3 61 58 61 58l110 1v11l-222-2-24-25c0 0-5.4-6.8-2-9 4.5 0 3-1.4 9 4 6 5.4 20 19 20 19h92l-29-29c0 0-10.3-9.4-27.1-23.3-8.8-7.3-20.3-12.4-57.9-13.7-31-30.7-101-103-101-103l-21 92-103 62-16 41-97 66 4 8 23-13-12 29 29 26 103-18c0 0 9.2-1.6 8 4-1.2 5.6-6.3 6.4-10 7-3.7 0.6-90 16-90 16l17 14 117-19 47-50 107 1 29 29 40 1 33-33h81l28 27 74.2 0.2-1.8 10.5-77.4 0.3-25-27h-76l-32 32h-47l-30-30h-100l-42 47 17 30-23 118 49-60v-68l23-24h65l39 40h74l35-37h82l28 27h10z"/><path class="a" d="m349 179l-1.8 103.1 10.8-7.1 1-73 35 33 3-13z"/><path fill-rule="evenodd" class="c" d="m778.5 359c-8 0-14.5-6.5-14.5-14.5 0-8 6.5-14.5 14.5-14.5 8 0 14.5 6.5 14.5 14.5 0 8-6.5 14.5-14.5 14.5z"/><path fill-rule="evenodd" class="c" d="m843.5 419c-7.5 0-13.5-6-13.5-13.5 0-7.5 6-13.5 13.5-13.5 7.5 0 13.5 6 13.5 13.5 0 7.5-6 13.5-13.5 13.5z"/><path fill-rule="evenodd" class="c" d="m678.5 580c-8 0-14.5-6.5-14.5-14.5 0-8 6.5-14.5 14.5-14.5 8 0 14.5 6.5 14.5 14.5 0 8-6.5 14.5-14.5 14.5z"/><path fill-rule="evenodd" class="d" d="m821.1 479.3c-6.1 0-11.1-5-11.1-11.2 0-6.1 5-11.1 11.1-11.1 6.2 0 11.2 5 11.2 11.1 0 6.2-5 11.2-11.2 11.2z"/><path fill-rule="evenodd" class="e" d="m791.1 537.4c-6.3 0-11.3-5.1-11.3-11.3 0-6.3 5-11.3 11.3-11.3 6.2 0 11.3 5 11.3 11.3 0 6.2-5.1 11.3-11.3 11.3z"/><path class="f" d="m53.6 796.7q0-16.5 5.8-31 5.8-14.7 16.4-25.5 10.7-10.9 25.5-17.2 14.9-6.3 33.1-6.3 8.5 0 16.1 1.8 7.7 1.6 14.5 4.5 6.7 2.8 12.3 6.8 5.7 3.8 10.1 8l2-16.5h30.5v150.7h-30.5l-2-16.6q-4.6 4.4-10.3 8.3-5.7 3.8-12.4 6.7-6.6 2.8-14.4 4.5-7.6 1.6-16.1 1.6-18 0-32.9-6.1-14.8-6.3-25.4-17.2-10.5-10.8-16.4-25.3-5.9-14.6-5.9-31.2zm35.6-0.1q0 10.8 3.9 19.9 3.8 9.1 10.4 15.7 6.5 6.4 15.3 10.1 8.8 3.5 18.9 3.5 10 0 18.8-3.5 8.8-3.7 15.2-10.1 6.6-6.6 10.4-15.6 3.8-9.1 3.8-20 0-10.7-3.8-19.7-3.8-9.1-10.4-15.5-6.6-6.4-15.4-10.1-8.8-3.7-18.9-3.7-10.1 0-18.9 3.7-8.7 3.5-15.3 10.1-6.5 6.4-10.3 15.5-3.7 9-3.7 19.7zm165.5 29.8l35 0.2q0.1 4.2 2.5 8 2.5 3.9 6.6 6.6 4.1 2.8 9.5 4.4 5.4 1.6 11.7 1.6 17 0 25-4.9 8.1-5.2 8.1-13.8 0-4.8-2.9-8.1-3-3.2-8.5-5.4-5.6-2.2-13.6-3.8-8.1-1.7-18.4-3.7-5.1-0.7-10.8-1.9-5.6-1.1-11.1-3-5.6-2.1-10.7-5.2-5-3-9-7.4-3.8-4.6-6.1-10.7-2.4-6.3-2.4-14.8 0-10.6 3.9-19.2 3.8-8.8 11.8-15.1 8.1-6.4 20.5-10 12.5-3.5 29.8-3.5 13.6 0 24.4 3.5 11 3.6 18.6 9.9 7.7 6.3 11.8 15 4.1 8.8 4.1 19.2l-35.6-0.1q-0.6-7.9-7.5-13-6.9-5.2-18.3-5.2-7.5 0-12.8 1.6-5.2 1.5-8.6 4-3.4 2.5-5 5.8-1.6 3.3-1.6 6.8 0 4.1 2.2 6.9 2.2 2.8 6.6 4.7 4.4 1.9 11.1 3.2 6.8 1.3 15.8 2.3 11 1.8 21.7 4.4 10.7 2.5 19.1 7.3 8.3 4.9 13.4 12.8 5.2 7.9 5.2 20.4 0 12.7-5.2 22.2-5.1 9.4-14.5 15.7-9.3 6.3-22.5 9.5-13.2 3.1-29.3 3.1-16.1 0-28.1-4.4-12.1-4.5-20.1-11.7-7.9-7.2-11.9-16.1-3.9-9-3.9-18.1zm160.2-29.7q0-16.5 6.2-31 6.1-14.7 17.1-25.5 11.2-10.9 26.4-17.2 15.2-6.3 33.3-6.3 18.1 0 33.4 6.3 15.3 6.3 26.3 17.2 11.2 10.8 17.3 25.5 6.3 14.5 6.3 31 0 3.7-0.3 5.9-0.3 2.2-0.6 4.2h-130.3q1.7 9.2 6.3 16.7 4.6 7.5 11.1 12.8 6.6 5.1 14.5 8 7.9 2.8 16.2 2.8 13.2 0 23.3-5.9 10.1-5.8 15.4-15.3h38.5q-3.6 9.9-10.7 19.1-7 9.1-16.9 16.2-9.9 7-22.5 11.2-12.4 4.1-27.3 4.1-18.1 0-33.3-6.3-15.2-6.3-26.4-17.1-11-10.8-17.1-25.3-6.2-14.5-6.2-31.1zm83.2-51.4q-9 0-16.8 2.8-7.6 2.6-13.8 7.4-6 4.9-10.2 11.6-4.3 6.6-6.3 14.5h92.7q-2-7.9-6.2-14.5-4.1-6.7-9.9-11.6-5.9-4.8-13.3-7.4-7.4-2.8-16.2-2.8zm272.1 45.5v81.2h-35.9v-80.4q0-12-2.6-20.4-2.7-8.3-7.5-13.6-4.8-5.3-11.9-7.6-6.9-2.4-15.5-2.4-9.4 0-17.3 3.6-7.7 3.3-13.5 9.6-5.7 6.2-8.9 14.8-3.1 8.5-3.1 18.8v77.6h-35.6v-150.7h29l2.7 15.2q4.7-4.1 10.5-7.6 5.9-3.7 12.5-6.3 6.7-2.8 14-4.3 7.4-1.6 14.8-1.6 17.6 0 30.5 5 12.9 4.8 21.2 14.4 8.5 9.3 12.5 23.3 4.1 13.7 4.1 31.4zm33.4 5.9q0-16.5 5.8-31 5.8-14.7 16.4-25.5 10.7-10.9 25.5-17.2 14.9-6.3 33.1-6.3 8.5 0 16.1 1.8 7.7 1.6 14.5 4.5 6.7 2.8 12.3 6.8 5.7 3.8 10.1 8l2-16.5h30.5v150.7h-30.5l-2-16.6q-4.6 4.4-10.3 8.3-5.7 3.8-12.4 6.7-6.6 2.8-14.4 4.5-7.6 1.6-16.1 1.6-18 0-32.9-6.1-14.8-6.3-25.4-17.2-10.5-10.8-16.4-25.3-5.9-14.6-5.9-31.2zm35.6-0.1q0 10.8 3.9 19.9 3.8 9.1 10.4 15.7 6.5 6.4 15.3 10.1 8.8 3.5 18.9 3.5 10 0 18.8-3.5 8.8-3.7 15.2-10.1 6.6-6.6 10.4-15.6 3.8-9.1 3.8-20 0-10.7-3.8-19.7-3.8-9.1-10.4-15.5-6.6-6.4-15.4-10.1-8.8-3.7-18.9-3.7-10.1 0-18.9 3.7-8.7 3.5-15.3 10.1-6.5 6.4-10.3 15.5-3.7 9-3.7 19.7z"/></svg>